<?xml version="1.0" encoding="UTF-8"?>
<svg width="150px" height="150px" viewBox="0 0 150 150" version="1.1" xmlns="http://www.w3.org/2000/svg" xmlns:xlink="http://www.w3.org/1999/xlink">
    <title>playphysio-p-colour</title>
    <g id="playphysio-p-colour" stroke="none" stroke-width="1" fill="none" fill-rule="evenodd">
        <g id="playphysioLogo" transform="translate(4.000000, 4.000000)">
            <path d="M130.39718,142.046667 L12.6011793,142.046667 C6.16770924,142.046667 0.953333333,136.83065 0.953333333,130.39718 L0.953333333,12.6028201 C0.953333333,6.16935002 6.16770924,0.953333333 12.6011793,0.953333333 L130.39718,0.953333333 C136.83065,0.953333333 142.046667,6.16935002 142.046667,12.6028201 L142.046667,130.39718 C142.046667,136.83065 136.83065,142.046667 130.39718,142.046667 Z" id="Stroke-172-Copy-17" fill="#812C7C"></path>
            <path d="M31.555943,124.435357 L51.798757,124.442268 C49.0568151,113.843607 48.009257,102.933983 48.5912337,92.1452899 C42.2726291,91.8308716 35.9806291,91.0465535 29.7750942,89.7785149 C28.9320593,101.304882 29.5023965,112.95909 31.555943,124.435357 Z" id="Stroke-386" fill="#FFFFFF"></path>
            <path d="M106.45635,29.1597051 L106.45635,29.1597051 C90.9591407,7.99520795 59.5423733,9.73660156 46.722257,32.7530569 C40.1592221,44.5333774 35.4435477,57.2103082 32.59685,70.2932187 C38.8007221,71.6942805 45.1259779,72.4734159 51.4761756,72.618532 C54.1000593,61.86439 58.3967105,51.5127724 64.3262221,42.0318517 C70.5467221,32.0844862 84.4376756,31.6577757 91.3498965,41.0972347 L91.3498965,41.0972347 C98.3036872,50.5937036 94.0752105,64.3831914 83.1174198,67.9592676 C72.7914895,71.328035 62.0964198,72.8603923 51.4761756,72.618532 C49.9164779,79.0174625 48.9470709,85.558054 48.5912337,92.1452899 C61.3747686,92.7810368 74.2796872,91.461171 86.8537105,88.0993139 C111.778943,81.4360647 122.040024,50.4434047 106.45635,29.1597051 Z" id="Stroke-390" fill="#FFFFFF"></path>
        </g>
    </g>
</svg>