<svg xmlns="http://www.w3.org/2000/svg" viewBox="0 0 64 64">
  <!-- Official PlayPhysio P Logo adapted for favicon -->
  <!-- Background rounded rectangle matching the official logo -->
  <path d="M58.8 64 L5.2 64 C2.33 64 0 61.67 0 58.8 L0 5.2 C0 2.33 2.33 0 5.2 0 L58.8 0 C61.67 0 64 2.33 64 5.2 L64 58.8 C64 61.67 61.67 64 58.8 64 Z" fill="#812C7C"/>

  <!-- Official P design optimized for favicon visibility -->
  <g transform="translate(4, 4) scale(0.4)">
    <!-- First P path from official logo -->
    <path d="M31.555943,124.435357 L51.798757,124.442268 C49.0568151,113.843607 48.009257,102.933983 48.5912337,92.1452899 C42.2726291,91.8308716 35.9806291,91.0465535 29.7750942,89.7785149 C28.9320593,101.304882 29.5023965,112.95909 31.555943,124.435357 Z" fill="#FFFFFF"/>

    <!-- Second P path from official logo -->
    <path d="M106.45635,29.1597051 L106.45635,29.1597051 C90.9591407,7.99520795 59.5423733,9.73660156 46.722257,32.7530569 C40.1592221,44.5333774 35.4435477,57.2103082 32.59685,70.2932187 C38.8007221,71.6942805 45.1259779,72.4734159 51.4761756,72.618532 C54.1000593,61.86439 58.3967105,51.5127724 64.3262221,42.0318517 C70.5467221,32.0844862 84.4376756,31.6577757 91.3498965,41.0972347 L91.3498965,41.0972347 C98.3036872,50.5937036 94.0752105,64.3831914 83.1174198,67.9592676 C72.7914895,71.328035 62.0964198,72.8603923 51.4761756,72.618532 C49.9164779,79.0174625 48.9470709,85.558054 48.5912337,92.1452899 C61.3747686,92.7810368 74.2796872,91.461171 86.8537105,88.0993139 C111.778943,81.4360647 122.040024,50.4434047 106.45635,29.1597051 Z" fill="#FFFFFF"/>
  </g>
</svg>
