<?xml version="1.0" encoding="UTF-8"?>
<svg width="231px" height="46px" viewBox="0 0 231 46" version="1.1" xmlns="http://www.w3.org/2000/svg" xmlns:xlink="http://www.w3.org/1999/xlink">
    <title>colour-landscape-logo-on-white</title>
    <g id="colour-landscape-logo-on-white" stroke="none" stroke-width="1" fill="none" fill-rule="evenodd">
        <g id="playphysioLogo">
            <path d="M40.3671039,45 L3.63238441,45 C1.62610475,45 0,43.3733836 0,41.3671039 L0,4.63289608 C0,2.62661643 1.62610475,1 3.63238441,1 L40.3671039,1 C42.3733836,1 44,2.62661643 44,4.63289608 L44,41.3671039 C44,43.3733836 42.3733836,45 40.3671039,45 Z" id="Stroke-172-Copy-17" fill="#812C7C"></path>
            <path d="M9.67382822,38.9978071 L16,39 C15.1431036,35.6366808 14.8157265,32.1746823 14.9976026,28.7510591 C13.0229474,28.6512833 11.0566065,28.4023922 9.11728723,28 C8.85382665,31.6577124 9.03206527,35.355993 9.67382822,38.9978071 Z" id="Stroke-386" fill="#FFFFFF"></path>
            <path d="M33.6356582,9.75541678 L33.6356582,9.75541678 C28.6764215,2.96946617 18.622793,3.52780738 14.5202485,10.9075494 C12.4200224,14.6846613 10.9109671,18.7492524 10,22.9440123 C11.985291,23.3932333 14.0094258,23.6430467 16.0415422,23.6895751 C16.881207,20.2414857 18.2561713,16.9224574 20.1536646,13.8825997 C22.1442767,10.6931863 26.5894981,10.5563705 28.8014666,13.5829344 L28.8014666,13.5829344 C31.0267379,16.6277773 29.6735899,21.0490864 26.1670052,22.19568 C22.8626211,23.2758044 19.4401092,23.7671225 16.0415422,23.6895751 C15.5424259,25.7412575 15.2322075,27.8383605 15.1183367,29.9504191 C19.2091748,30.1542579 23.3388568,29.7310707 27.3626495,28.653162 C35.3389325,26.5167314 38.6225645,16.5795872 33.6356582,9.75541678 Z" id="Stroke-390" fill="#FFFFFF"></path>
        </g>
        <text id="PLAYPHYSIO" font-family="DINAlternate-Bold, DIN Alternate" font-size="23" font-weight="bold" line-spacing="44" letter-spacing="4.5" fill="#812C7C">
            <tspan x="65" y="33">PLAYPHYSI</tspan>
            <tspan x="214.907227" y="33">O</tspan>
        </text>
        <text id="®" font-family="HelveticaNeue, Helvetica Neue" font-size="12" font-weight="normal" letter-spacing="-0.8880008" fill="#812C7C">
            <tspan x="228" y="23">®</tspan>
        </text>
    </g>
</svg>